# xmcd CD database file
#
# Track frame offsets:
#	150
#	22380
#	44326
#	67244
#	92402
#	116426
#	141511
#	157249
#	178332
#
# Disc length: 3013 seconds
#
# Revision: 0
# Processed by: cddbd v1.5.1PL2 Copyright (c) Steve Scherf et al.
# Submitted via: CDex 1.51
#
DISCID=8b0bc309
DTITLE=Heini Altbart - Caravan
DYEAR=1900
DGENRE=Jazz
TTITLE0=Can't buy me love
TTITLE1=Tenderly
TTITLE2=Stuffy
TTITLE3=Bewitched
TTITLE4=Old Black Magic
TTITLE5=Our Love is here to stay
TTITLE6=Day by day
TTITLE7=Someone to watch over me
TTITLE8=Caravan
EXTD=
EXTT0=
EXTT1=
EXTT2=
EXTT3=
EXTT4=
EXTT5=
EXTT6=
EXTT7=
EXTT8=
PLAYORDER=
